<svg width="500" height="500" viewBox="0 0 500 500" fill="none" xmlns="http://www.w3.org/2000/svg">
<g clip-path="url(#clip0_36_4)">
<mask id="mask0_36_4" style="mask-type:luminance" maskUnits="userSpaceOnUse" x="0" y="0" width="500" height="500">
<path d="M250 0C111.928 0 0 111.928 0 250C0 388.072 111.928 500 250 500C388.072 500 500 388.072 500 250C500 111.928 388.072 0 250 0Z" fill="white"/>
</mask>
<g mask="url(#mask0_36_4)">
<path d="M550 -50H-50V550H550V-50Z" fill="white"/>
</g>
<path d="M60.2532 178.66H129.396C142.545 178.66 152.927 181.915 160.544 188.426C168.163 194.936 171.973 204.248 171.973 216.359C171.973 222.087 170.671 227.426 168.067 232.376C165.463 237.324 161.751 241.229 156.933 244.09C163.572 246.694 168.455 250.437 171.581 255.32C174.707 260.203 176.271 266.551 176.271 274.363C176.271 282.698 174.318 289.958 170.411 296.143C166.505 302.327 161.263 307.047 154.685 310.303C148.109 313.558 140.785 315.186 132.712 315.186H60.2532V178.66ZM121.777 232.763C131.931 232.763 137.01 228.011 137.01 218.506C137.01 213.169 135.708 209.492 133.104 207.474C130.5 205.453 126.528 204.442 121.192 204.442H94.8245V232.763H121.777ZM123.923 289.403C129.782 289.403 134.144 288.298 137.01 286.087C139.875 283.873 141.308 279.966 141.308 274.363C141.308 268.766 139.81 264.698 136.817 262.161C133.822 259.622 129.265 258.352 123.145 258.352H94.8245V289.403H123.923Z" fill="black"/>
<path d="M232.518 318.115C223.924 318.115 215.397 317.301 206.934 315.674C198.47 314.046 191.503 311.801 186.034 308.934V277.883C193.066 281.528 200.39 284.264 208.007 286.087C215.622 287.908 222.882 288.818 229.786 288.818C236.164 288.818 240.981 287.842 244.236 285.889C247.491 283.936 249.119 281.137 249.119 277.491C249.119 274.755 248.239 272.378 246.479 270.36C244.722 268.344 242.152 266.488 238.769 264.796C235.384 263.105 230.112 260.76 222.95 257.762C210.319 252.425 201.138 246.501 195.408 239.99C189.681 233.48 186.817 225.473 186.817 215.968C186.817 208.155 188.997 201.19 193.358 195.068C197.719 188.948 203.806 184.196 211.618 180.812C219.431 177.424 228.415 175.73 238.575 175.73C246.907 175.73 254.327 176.381 260.838 177.683C267.348 178.986 273.599 181.07 279.591 183.934V214.208C268.129 208.22 256.606 205.226 245.02 205.226C238.77 205.226 233.789 206.235 230.076 208.252C226.366 210.27 224.512 213.168 224.512 216.944C224.512 220.718 226.399 223.779 230.173 226.125C233.949 228.469 240.916 231.658 251.072 235.692C260.319 239.47 267.512 243.182 272.653 246.826C277.797 250.472 281.54 254.703 283.884 259.521C286.23 264.341 287.403 270.461 287.403 277.883C287.403 290.511 282.812 300.373 273.63 307.47C264.45 314.568 250.747 318.115 232.518 318.115Z" fill="black"/>
<path d="M370.602 318.115C356.801 318.115 344.334 315.122 333.203 309.133C322.07 303.141 313.281 294.774 306.836 284.032C300.389 273.29 297.167 260.953 297.167 247.019C297.167 233.091 300.389 220.722 306.836 209.915C313.281 199.106 322.07 190.707 333.203 184.718C344.334 178.726 356.801 175.73 370.602 175.73C384.274 175.73 396.676 178.726 407.808 184.718C418.943 190.707 427.701 199.106 434.079 209.915C440.46 220.722 443.651 233.091 443.651 247.019C443.651 260.953 440.46 273.29 434.079 284.032C427.701 294.774 418.943 303.141 407.808 309.133C396.676 315.122 384.274 318.115 370.602 318.115ZM370.602 285.695C377.506 285.695 383.821 284.133 389.549 281.006C395.278 277.88 399.836 273.387 403.22 267.527C406.608 261.668 408.302 254.832 408.302 247.019C408.302 239.207 406.64 232.405 403.317 226.613C399.997 220.819 395.471 216.326 389.742 213.135C384.015 209.944 377.634 208.349 370.602 208.349C363.441 208.349 356.994 209.944 351.264 213.135C345.537 216.326 341.013 220.819 337.694 226.613C334.374 232.405 332.715 239.207 332.715 247.019C332.715 254.832 334.374 261.668 337.694 267.527C341.013 273.387 345.57 277.88 351.366 281.006C357.16 284.133 363.573 285.695 370.602 285.695Z" fill="black"/>
<path d="M66.4895 335.941H70.3704L68.7021 341.149H64.3279L66.4895 335.941ZM71.6724 335.941H75.5533L73.885 341.149H69.5108L71.6724 335.941Z" fill="black"/>
<path d="M77.3715 336.333H86.5929C88.3451 336.333 89.7285 336.768 90.7432 337.635C91.7605 338.503 92.2691 339.744 92.2691 341.358C92.2691 342.125 92.0936 342.838 91.7452 343.499C91.3994 344.158 90.906 344.677 90.2651 345.056C91.1501 345.405 91.8012 345.905 92.2183 346.556C92.6353 347.207 92.8439 348.054 92.8439 349.094C92.8439 350.207 92.5819 351.174 92.0606 351.998C91.538 352.822 90.8373 353.452 89.96 353.885C89.0851 354.32 88.1098 354.536 87.0354 354.536H77.3715V336.333ZM85.5756 343.545C86.9311 343.545 87.6101 342.913 87.6101 341.648C87.6101 340.936 87.4346 340.446 87.0862 340.178C86.7404 339.907 86.2114 339.771 85.4993 339.771H81.9847V343.545H85.5756ZM85.8655 351.098C86.645 351.098 87.2248 350.951 87.605 350.656C87.9878 350.361 88.1798 349.84 88.1798 349.094C88.1798 348.349 87.9789 347.806 87.5796 347.466C87.1829 347.128 86.5751 346.958 85.7587 346.958H81.9847V351.098H85.8655Z" fill="black"/>
<path d="M102.006 354.928C99.557 354.928 97.6344 354.356 96.2382 353.209C94.8408 352.063 94.1427 350.439 94.1427 348.336C94.1427 346.271 94.7632 344.641 96.0043 343.443C97.2453 342.247 99.037 341.648 101.38 341.648C102.876 341.648 104.155 341.93 105.221 342.492C106.289 343.055 107.095 343.829 107.642 344.811C108.191 345.792 108.466 346.897 108.466 348.128V349.821H98.4915C98.6644 350.517 99.098 351.021 99.7935 351.332C100.488 351.645 101.434 351.8 102.632 351.8C103.448 351.8 104.286 351.731 105.144 351.591C106.005 351.453 106.748 351.263 107.372 351.022V354.043C106.731 354.305 105.928 354.516 104.961 354.679C103.997 354.844 103.013 354.928 102.006 354.928ZM104.142 346.958C104.074 346.28 103.796 345.751 103.308 345.371C102.822 344.988 102.155 344.796 101.304 344.796C100.47 344.796 99.8101 344.993 99.3256 345.386C98.8399 345.777 98.5627 346.3 98.4915 346.958H104.142Z" fill="black"/>
<path d="M124.82 354.928C123.673 354.928 122.536 354.819 121.407 354.603C120.278 354.386 119.348 354.086 118.62 353.702V349.562C119.555 350.048 120.532 350.411 121.549 350.656C122.566 350.9 123.534 351.022 124.453 351.022C125.304 351.022 125.946 350.892 126.381 350.63C126.815 350.369 127.032 349.997 127.032 349.511C127.032 349.145 126.915 348.828 126.681 348.56C126.447 348.293 126.103 348.045 125.649 347.817C125.197 347.591 124.495 347.278 123.543 346.882C121.857 346.17 120.631 345.38 119.866 344.511C119.103 343.644 118.721 342.576 118.721 341.307C118.721 340.267 119.012 339.339 119.596 338.525C120.178 337.709 120.991 337.074 122.032 336.623C123.073 336.169 124.27 335.941 125.623 335.941C126.735 335.941 127.725 336.03 128.594 336.206C129.461 336.378 130.294 336.656 131.091 337.035V341.073C129.565 340.273 128.029 339.873 126.483 339.873C125.649 339.873 124.984 340.009 124.489 340.28C123.997 340.548 123.752 340.934 123.752 341.439C123.752 341.942 124.002 342.348 124.504 342.66C125.009 342.973 125.939 343.398 127.292 343.937C128.522 344.443 129.48 344.937 130.165 345.422C130.853 345.908 131.353 346.472 131.666 347.116C131.977 347.756 132.134 348.573 132.134 349.562C132.134 351.248 131.521 352.563 130.298 353.509C129.073 354.455 127.247 354.928 124.82 354.928Z" fill="black"/>
<path d="M136.406 340.371C135.711 340.371 135.127 340.146 134.656 339.695C134.189 339.241 133.955 338.667 133.955 337.976C133.955 337.298 134.189 336.729 134.656 336.272C135.127 335.811 135.711 335.58 136.406 335.58C137.08 335.58 137.657 335.811 138.135 336.272C138.614 336.729 138.853 337.298 138.853 337.976C138.853 338.651 138.614 339.219 138.135 339.679C137.657 340.141 137.08 340.371 136.406 340.371ZM134.112 342.034H138.695V354.536H134.112V342.034Z" fill="black"/>
<path d="M141.193 342.034H145.44V343.392C145.962 342.837 146.561 342.408 147.236 342.106C147.914 341.8 148.635 341.648 149.398 341.648C150.336 341.648 151.087 341.788 151.651 342.065C152.213 342.34 152.669 342.755 153.019 343.311C153.538 342.792 154.17 342.385 154.916 342.09C155.665 341.795 156.422 341.648 157.185 341.648C158.833 341.648 160.004 342.069 160.699 342.909C161.393 343.751 161.742 344.962 161.742 346.541V354.536H157.368V347.192C157.368 346.498 157.237 345.994 156.976 345.681C156.714 345.37 156.28 345.213 155.674 345.213C154.893 345.213 154.26 345.492 153.772 346.047C153.788 346.342 153.797 346.794 153.797 347.4V354.536H149.423V347.009C149.423 346.368 149.308 345.909 149.082 345.63C148.858 345.353 148.459 345.213 147.887 345.213C147.002 345.213 146.239 345.709 145.598 346.698V354.536H141.193V342.034Z" fill="black"/>
<path d="M163.952 342.034H168.382V343.286C169.544 342.195 171.019 341.648 172.807 341.648C174.109 341.648 175.264 341.921 176.271 342.467C177.278 343.013 178.058 343.787 178.615 344.786C179.171 345.783 179.45 346.941 179.45 348.26C179.45 349.562 179.171 350.722 178.615 351.739C178.058 352.754 177.28 353.538 176.281 354.094C175.284 354.65 174.125 354.928 172.807 354.928C171.973 354.928 171.177 354.801 170.421 354.547C169.669 354.296 169.04 353.954 168.539 353.519V360.238H163.952V342.034ZM171.612 351.358C172.547 351.358 173.301 351.082 173.875 350.528C174.447 349.973 174.735 349.216 174.735 348.26C174.735 347.304 174.447 346.554 173.875 346.007C173.301 345.461 172.547 345.188 171.612 345.188C170.916 345.188 170.29 345.366 169.735 345.722C169.178 346.078 168.78 346.56 168.539 347.166V349.379C168.78 349.987 169.178 350.467 169.735 350.823C170.29 351.179 170.916 351.358 171.612 351.358Z" fill="black"/>
<path d="M181.268 335.29H185.856V354.536H181.268V335.29Z" fill="black"/>
<path d="M195.539 354.928C193.09 354.928 191.167 354.356 189.771 353.209C188.373 352.063 187.675 350.439 187.675 348.336C187.675 346.271 188.296 344.641 189.537 343.443C190.778 342.247 192.57 341.648 194.913 341.648C196.408 341.648 197.688 341.93 198.753 342.492C199.821 343.055 200.627 343.829 201.174 344.811C201.724 345.792 201.998 346.897 201.998 348.128V349.821H192.024C192.197 350.517 192.631 351.021 193.326 351.332C194.02 351.645 194.966 351.8 196.164 351.8C196.981 351.8 197.819 351.731 198.677 351.591C199.538 351.453 200.28 351.263 200.905 351.022V354.043C200.264 354.305 199.46 354.516 198.494 354.679C197.53 354.844 196.546 354.928 195.539 354.928ZM197.675 346.958C197.606 346.28 197.329 345.751 196.841 345.371C196.355 344.988 195.687 344.796 194.837 344.796C194.003 344.796 193.343 344.993 192.858 345.386C192.372 345.777 192.095 346.3 192.024 346.958H197.675Z" fill="black"/>
<path d="M221.526 354.928C219.738 354.928 218.263 354.381 217.101 353.285V354.536H212.671V335.29H217.259V343.052C217.76 342.618 218.388 342.276 219.141 342.024C219.896 341.774 220.692 341.648 221.526 341.648C222.845 341.648 224.003 341.926 225 342.482C225.999 343.035 226.778 343.82 227.335 344.837C227.89 345.852 228.169 347.009 228.169 348.311C228.169 349.631 227.89 350.79 227.335 351.79C226.778 352.787 225.997 353.56 224.99 354.109C223.983 354.655 222.828 354.928 221.526 354.928ZM220.331 351.383C221.267 351.383 222.021 351.111 222.594 350.564C223.166 350.018 223.454 349.267 223.454 348.311C223.454 347.358 223.166 346.604 222.594 346.047C222.021 345.492 221.267 345.213 220.331 345.213C219.635 345.213 219.01 345.391 218.454 345.747C217.897 346.103 217.499 346.585 217.259 347.192V349.404C217.499 350.015 217.897 350.498 218.454 350.854C219.01 351.207 219.635 351.383 220.331 351.383Z" fill="black"/>
<path d="M235.017 354.928C233.298 354.928 232.007 354.452 231.147 353.499C230.288 352.543 229.86 351.284 229.86 349.72V342.034H234.442V349.196C234.442 350.638 235.094 351.357 236.396 351.357C236.986 351.357 237.522 351.22 238.008 350.945C238.496 350.668 238.895 350.259 239.208 349.72V342.034H243.791V354.536H239.366V353.183C238.827 353.757 238.173 354.191 237.408 354.486C236.645 354.781 235.848 354.928 235.017 354.928Z" fill="black"/>
<path d="M251.548 354.928C250.004 354.928 248.838 354.5 248.049 353.641C247.258 352.78 246.864 351.604 246.864 350.111V345.213H245.094V342.034H246.864V338.286H251.446V342.034H254.31V345.213H251.446V349.486C251.446 350.161 251.571 350.645 251.823 350.94C252.073 351.235 252.521 351.383 253.165 351.383C253.738 351.383 254.311 351.228 254.885 350.915V354.328C254.433 354.535 253.951 354.685 253.44 354.781C252.928 354.878 252.297 354.928 251.548 354.928Z" fill="black"/>
<path d="M274.308 354.928C272.467 354.928 270.803 354.53 269.318 353.733C267.836 352.933 266.665 351.818 265.804 350.386C264.945 348.952 264.517 347.306 264.517 345.447C264.517 343.59 264.945 341.94 265.804 340.498C266.665 339.058 267.836 337.939 269.318 337.141C270.803 336.342 272.467 335.941 274.308 335.941C276.131 335.941 277.784 336.342 279.267 337.141C280.752 337.939 281.919 339.058 282.771 340.498C283.622 341.94 284.048 343.59 284.048 345.447C284.048 347.306 283.622 348.952 282.771 350.386C281.919 351.818 280.752 352.933 279.267 353.733C277.784 354.53 276.131 354.928 274.308 354.928ZM274.308 350.605C275.226 350.605 276.068 350.396 276.831 349.979C277.596 349.562 278.205 348.964 278.657 348.184C279.107 347.4 279.333 346.489 279.333 345.447C279.333 344.407 279.111 343.499 278.667 342.726C278.226 341.953 277.624 341.355 276.861 340.931C276.098 340.503 275.246 340.29 274.308 340.29C273.354 340.29 272.495 340.503 271.729 340.931C270.966 341.355 270.362 341.953 269.918 342.726C269.477 343.499 269.257 344.407 269.257 345.447C269.257 346.489 269.477 347.4 269.918 348.184C270.362 348.964 270.971 349.562 271.744 349.979C272.518 350.396 273.372 350.605 274.308 350.605Z" fill="black"/>
<path d="M290.897 354.928C289.178 354.928 287.887 354.452 287.027 353.499C286.168 352.543 285.74 351.284 285.74 349.72V342.034H290.322V349.196C290.322 350.638 290.974 351.357 292.276 351.357C292.866 351.357 293.402 351.22 293.888 350.945C294.376 350.668 294.775 350.259 295.088 349.72V342.034H299.671V354.536H295.246V353.183C294.707 353.757 294.053 354.191 293.288 354.486C292.525 354.781 291.728 354.928 290.897 354.928Z" fill="black"/>
<path d="M307.428 354.928C305.884 354.928 304.718 354.5 303.929 353.641C303.138 352.78 302.744 351.604 302.744 350.111V345.213H300.974V342.034H302.744V338.286H307.326V342.034H310.19V345.213H307.326V349.486C307.326 350.161 307.451 350.645 307.703 350.94C307.953 351.235 308.401 351.383 309.046 351.383C309.618 351.383 310.191 351.228 310.765 350.915V354.328C310.313 354.535 309.831 354.685 309.32 354.781C308.808 354.878 308.177 354.928 307.428 354.928Z" fill="black"/>
<path d="M317.454 354.928C316.447 354.928 315.395 354.828 314.3 354.628C313.208 354.428 312.342 354.147 311.701 353.784V350.422C312.413 350.839 313.268 351.183 314.265 351.454C315.262 351.722 316.177 351.856 317.011 351.856C317.618 351.856 318.06 351.813 318.339 351.724C318.616 351.636 318.756 351.463 318.756 351.205C318.756 350.995 318.664 350.826 318.481 350.696C318.301 350.564 317.972 350.425 317.494 350.279C317.016 350.13 316.464 349.969 315.841 349.796C314.78 349.484 313.945 349.164 313.339 348.835C312.731 348.503 312.281 348.086 311.986 347.583C311.691 347.079 311.543 346.444 311.543 345.681C311.543 344.328 312.078 343.319 313.146 342.65C314.214 341.982 315.676 341.648 317.535 341.648C318.437 341.648 319.386 341.743 320.383 341.933C321.383 342.123 322.134 342.374 322.637 342.685V345.997C322.118 345.648 321.427 345.361 320.566 345.137C319.708 344.911 318.905 344.796 318.156 344.796C317.566 344.796 317.105 344.855 316.777 344.969C316.448 345.081 316.284 345.277 316.284 345.554C316.284 345.812 316.448 346.011 316.777 346.149C317.105 346.289 317.695 346.463 318.547 346.673C319.103 346.813 319.338 346.874 319.254 346.856C320.363 347.151 321.22 347.482 321.828 347.848C322.438 348.212 322.868 348.64 323.12 349.135C323.37 349.631 323.496 350.259 323.496 351.022C323.496 352.22 322.979 353.171 321.945 353.875C320.914 354.577 319.417 354.928 317.454 354.928Z" fill="black"/>
<path d="M330.733 354.928C329.189 354.928 328.023 354.5 327.234 353.641C326.443 352.78 326.049 351.604 326.049 350.111V345.213H324.279V342.034H326.049V338.286H330.631V342.034H333.495V345.213H330.631V349.486C330.631 350.161 330.756 350.645 331.008 350.94C331.258 351.235 331.706 351.383 332.35 351.383C332.923 351.383 333.496 351.228 334.07 350.915V354.328C333.618 354.535 333.136 354.685 332.625 354.781C332.113 354.878 331.482 354.928 330.733 354.928Z" fill="black"/>
<path d="M340.082 354.928C338.518 354.928 337.256 354.549 336.293 353.794C335.329 353.039 334.849 351.983 334.849 350.63C334.849 349.224 335.313 348.143 336.242 347.39C337.17 346.635 338.503 346.256 340.24 346.256C340.918 346.256 341.594 346.331 342.269 346.48C342.947 346.626 343.528 346.821 344.014 347.065V346.8C344.014 345.465 342.92 344.796 340.733 344.796C339.207 344.796 337.81 345.091 336.542 345.681V342.533C337.098 342.272 337.827 342.06 338.729 341.897C339.631 341.732 340.568 341.648 341.542 341.648C343.868 341.648 345.624 342.113 346.811 343.041C348.002 343.967 348.597 345.264 348.597 346.932V354.536H344.304V353.468C343.832 353.92 343.241 354.276 342.529 354.536C341.817 354.797 341 354.928 340.082 354.928ZM341.435 352.115C341.974 352.115 342.478 352.007 342.946 351.79C343.416 351.574 343.772 351.29 344.014 350.94V349.847C343.268 349.346 342.417 349.094 341.461 349.094C340.853 349.094 340.385 349.225 340.057 349.486C339.728 349.748 339.563 350.129 339.563 350.63C339.563 351.098 339.722 351.463 340.042 351.724C340.363 351.986 340.827 352.115 341.435 352.115Z" fill="black"/>
<path d="M350.808 342.034H355.239V343.418C355.778 342.828 356.429 342.385 357.192 342.09C357.955 341.795 358.753 341.648 359.587 341.648C361.34 341.648 362.637 342.104 363.478 343.016C364.323 343.925 364.745 345.161 364.745 346.724V354.536H360.157V347.324C360.157 345.918 359.516 345.213 358.234 345.213C357.644 345.213 357.105 345.349 356.617 345.62C356.131 345.888 355.724 346.3 355.396 346.856V354.536H350.808V342.034Z" fill="black"/>
<path d="M373.077 354.928C371.775 354.928 370.62 354.655 369.613 354.109C368.606 353.56 367.824 352.787 367.268 351.79C366.711 350.79 366.434 349.631 366.434 348.311C366.434 347.009 366.711 345.852 367.268 344.837C367.824 343.82 368.601 343.035 369.598 342.482C370.595 341.926 371.754 341.648 373.077 341.648C373.944 341.648 374.742 341.77 375.472 342.014C376.201 342.256 376.825 342.601 377.344 343.052V335.29H381.927V354.536H377.502V353.285C376.338 354.381 374.863 354.928 373.077 354.928ZM374.272 351.383C374.966 351.383 375.592 351.207 376.149 350.854C376.704 350.498 377.102 350.015 377.344 349.404V347.192C377.102 346.585 376.704 346.103 376.149 345.747C375.592 345.391 374.966 345.213 374.272 345.213C373.336 345.213 372.581 345.492 372.009 346.047C371.435 346.604 371.149 347.358 371.149 348.311C371.149 349.267 371.435 350.018 372.009 350.564C372.581 351.111 373.336 351.383 374.272 351.383Z" fill="black"/>
<path d="M386.72 340.371C386.025 340.371 385.441 340.146 384.971 339.695C384.503 339.241 384.269 338.667 384.269 337.976C384.269 337.298 384.503 336.729 384.971 336.272C385.441 335.811 386.025 335.58 386.72 335.58C387.394 335.58 387.972 335.811 388.45 336.272C388.928 336.729 389.167 337.298 389.167 337.976C389.167 338.651 388.928 339.219 388.45 339.679C387.972 340.141 387.394 340.371 386.72 340.371ZM384.426 342.034H389.009V354.536H384.426V342.034Z" fill="black"/>
<path d="M391.508 342.034H395.938V343.418C396.477 342.828 397.128 342.385 397.891 342.09C398.654 341.795 399.452 341.648 400.286 341.648C402.039 341.648 403.336 342.104 404.177 343.016C405.022 343.925 405.444 345.161 405.444 346.724V354.536H400.856V347.324C400.856 345.918 400.215 345.213 398.934 345.213C398.344 345.213 397.804 345.349 397.316 345.62C396.83 345.888 396.423 346.3 396.095 346.856V354.536H391.508V342.034Z" fill="black"/>
<path d="M414.452 360.528C413.618 360.528 412.779 360.448 411.934 360.289C411.093 360.133 410.369 359.925 409.763 359.668V356.49C411.136 357.08 412.699 357.375 414.452 357.375C415.716 357.375 416.63 357.113 417.194 356.591C417.76 356.072 418.043 355.31 418.043 354.302V353.545C417.541 353.979 416.92 354.318 416.182 354.562C415.445 354.806 414.661 354.928 413.827 354.928C412.507 354.928 411.344 354.65 410.337 354.094C409.33 353.538 408.543 352.756 407.977 351.749C407.414 350.742 407.133 349.587 407.133 348.285C407.133 346.967 407.41 345.803 407.967 344.796C408.523 343.789 409.305 343.013 410.312 342.467C411.319 341.921 412.474 341.648 413.776 341.648C415.562 341.648 417.037 342.195 418.201 343.286V342.034H422.626V353.677C422.626 355.846 421.961 357.53 420.632 358.727C419.306 359.928 417.246 360.528 414.452 360.528ZM414.971 351.383C415.683 351.383 416.316 351.202 416.873 350.839C417.429 350.472 417.819 349.987 418.043 349.379V347.192C417.801 346.585 417.403 346.103 416.848 345.747C416.291 345.391 415.665 345.213 414.971 345.213C414.035 345.213 413.28 345.488 412.708 346.037C412.134 346.584 411.848 347.324 411.848 348.26C411.848 349.216 412.134 349.977 412.708 350.539C413.28 351.102 414.035 351.383 414.971 351.383Z" fill="black"/>
<path d="M426.118 335.941H430.492L428.33 341.149H424.449L426.118 335.941ZM431.3 335.941H435.675L433.513 341.149H429.632L431.3 335.941Z" fill="black"/>
</g>
<defs>
<clipPath id="clip0_36_4">
<rect width="500" height="500" fill="white"/>
</clipPath>
</defs>
</svg>
