<?xml version="1.0" encoding="UTF-8"?>
<svg id="BSO" data-name="BSO Space Logo" aria-label="BSO Space Logo" xmlns="http://www.w3.org/2000/svg" viewBox="0 0 1785.0764 1053.0393">
  <defs>
    <style>
      .cls-1 {
        fill: #231f20;
      }

      .cls-2 {
        fill: #F97316;
        animation: blipCycle 60s infinite;
      }
        @media (prefers-color-scheme: dark) {
          .cls-1 {
            fill: #fff;
          }
        }

      @keyframes blipCycle {
        0%, 24%   { fill: #F97316; }
        25%, 49%  { fill: #01BE62; }
        50%, 74%  { fill: #8B5CF6; }
        75%, 99%  { fill: #3B82F6; }
        100%      { fill: #F97316; }
      }
    </style>
  </defs>
  <g>
    <path class="cls-1" d="M1321.2074,765.8457V95.7304h-81.3753c-7.9269,0-14.3528,6.426-14.3528,14.3528v655.7625h95.7282Z"/>
    <path class="cls-1" d="M1608.3918,143.5956v622.2501h95.7396V110.289h0c0-8.0405-6.5181-14.5586-14.5586-14.5586h-81.181v47.8652Z"/>
    <path class="cls-1" d="M1369.0658,95.7304h239.326V14.3529c0-7.9269-6.426-14.3529-14.3529-14.3529h-258.4787c-7.9269,0-14.3528,6.426-14.3528,14.3528v81.3776h47.8584Z"/>
    <path class="cls-1" d="M1608.3918,861.5853v95.7144h81.3866c7.9269,0,14.353-6.4261,14.353-14.353h0v-81.3614h-95.7396Z"/>
    <path class="cls-1" d="M1321.2074,909.4415v-47.8561h-95.7282v81.3615c0,7.9269,6.426,14.3528,14.3528,14.3528h81.3753v-47.8582Z"/>
    <path class="cls-1" d="M1560.5334,957.2997h-239.326v81.3868c0,7.9269,6.426,14.3528,14.3528,14.3528h258.4787c7.9269,0,14.3529-6.426,14.3529-14.3529v-81.3867h-47.8584Z"/>
  </g>
  <g>
    <path class="cls-1" d="M464.5497,143.5978v335.0565h95.7305V110.2913c0-8.0406-6.5182-14.5587-14.5587-14.5587h-81.1717v47.8652Z"/>
    <path class="cls-1" d="M464.5497,622.25v143.5956h0s95.7305.0001,95.7305.0001h0v-176.9022c0-8.0406-6.5182-14.5587-14.5587-14.5587h-81.1717v47.8652Z"/>
    <path class="cls-1" d="M416.6844,957.3064h-239.3261v-95.7211h-95.7304v177.0918h0c0,7.9306,6.4291,14.3597,14.3597,14.3597h354.2024c7.9306,0,14.3597-6.4291,14.3597-14.3597h0v-81.3707h-47.8653Z"/>
    <path class="cls-1" d="M177.3584,765.8457h0v-191.4609h287.1913v-95.7305H177.3584V95.7326h287.1913V14.3622C464.5497,6.4315,458.1206.0024,450.1899.0024H95.9877c-7.9307,0-14.3598,6.4291-14.3598,14.3598v751.4834h0s95.7304.0001,95.7304.0001Z"/>
    <path class="cls-1" d="M479.1001,861.5853c-8.036,0-14.5504,6.5144-14.5504,14.5504h0v81.1707h81.3708c7.9306,0,14.3597-6.4291,14.3597-14.3597h0v-81.3614h-81.1801Z"/>
  </g>
  <g>
    <path class="cls-1" d="M1038.9277,717.9816v47.8641h81.3718c7.93,0,14.3586-6.4286,14.3586-14.3586h0v-81.3639h-95.7304v47.8584Z"/>
    <path class="cls-1" d="M847.4668,526.5253v47.8584h95.7304v-81.1694h0c0-8.0405-6.5181-14.5586-14.5586-14.5586h-81.1718v47.8697Z"/>
    <path class="cls-1" d="M943.1972,622.2535v33.51c0,7.9307,6.4291,14.3598,14.3598,14.3598h81.3707v-95.7396h-95.7305v47.8698Z"/>
    <path class="cls-1" d="M1038.9277,143.6013v143.598h81.366c7.9333,0,14.3644-6.4312,14.3644-14.3644h0V110.1074c0-7.9333-6.4312-14.3644-14.3644-14.3644h-81.366v47.8584Z"/>
    <path class="cls-1" d="M799.6015,95.743h239.3262V14.3632c0-7.9307-6.4291-14.3598-14.3598-14.3598h-258.4717c-7.9307,0-14.3598,6.4291-14.3598,14.3598v81.3798h47.8652Z"/>
    <path class="cls-1" d="M991.0624,957.3078h-239.3261v81.3752h0c0,7.927,6.4261,14.353,14.353,14.353h258.4854c7.9269,0,14.353-6.4261,14.353-14.353h0v-81.3752h-47.8653Z"/>
    <path class="cls-1" d="M751.7363,909.4494v-47.8641h-95.7304v95.7224h95.7304v-47.8584Z"/>
    <path class="cls-1" d="M1038.9277,861.5853v95.7224h95.7304v-95.7224h-95.7304Z"/>
    <path class="cls-1" d="M703.8711,382.9275h47.8652V95.743h-81.3706c-7.9307,0-14.3598,6.4291-14.3598,14.3598v272.8248h47.8652Z"/>
    <path class="cls-1" d="M751.7363,430.7973v47.8584h95.7305v-95.7282h-95.7305v47.8698Z"/>
    <path class="cls-1" d="M751.7363,765.8457v-81.3639c0-7.93-6.4286-14.3586-14.3586-14.3586h-81.3718v81.3639h0c0,7.93,6.4286,14.3586,14.3586,14.3586h81.3718Z"/>
  </g>
  <path class="cls-2" d="M1708.6212,765.8569c-1.2727-.172-1.6028,1.7001-.347,1.9688,12.7347,2.7244,26.4189,5.5592,28.4493,5.9615,96.8384,19.1885-395.2928,34.3795-844.1853,34.3795s-941.0236-15.191-844.1852-34.3795c2.0303-.4023,15.7146-3.2372,28.4493-5.9615,1.2558-.2687.9257-2.1407-.347-1.9688-59.4432,8.0294-76.4553,15.7443-76.4553,25.7539,0,34.3009,377.9387,48.1176,892.5382,48.1176s892.5382-13.8167,892.5382-48.1176c0-10.0096-17.0121-17.7245-76.4552-25.7539Z"/>
</svg>